PathFileType	4	(X/Y/Z)	/Users/itak/Documents/Research/Walk-IL/dataset/trc/00059_00006.trc
DataRate	CameraRate	NumFrames	NumMarkers	Units	OrigDataRate	OrigDataStartFrame	OrigNumFrames
100.000000	100.000000	4	53	mm	100.000000	187	750
Frame#	Time	RPSI			LPSI			L3			STRN			T10			C7			CLAV			RBAK			LBAK			LSHO			LUPA			LAEL			LAOL			LWTS			LWPS			LFRA			LIFD			LHPS			LHTS			RSHO			RUPA			RAEL			RAOL			RWTS			RWPS			RFRA			RIFD			RHTS			RHPS			RBHD			LFHD			RFHD			LBHD			LHIP			RHIP			RASI			LASI			LKNE			LTHI			LANK			LTIP			LTOE			LMT1			LMT5			LHEE			RKNE			RTHI			RANK			RTIP			RTOE			RMT1			RMT5			RHEE			
		X1	Y1	Z1	X2	Y2	Z2	X3	Y3	Z3	X4	Y4	Z4	X5	Y5	Z5	X6	Y6	Z6	X7	Y7	Z7	X8	Y8	Z8	X9	Y9	Z9	X10	Y10	Z10	X11	Y11	Z11	X12	Y12	Z12	X13	Y13	Z13	X14	Y14	Z14	X15	Y15	Z15	X16	Y16	Z16	X17	Y17	Z17	X18	Y18	Z18	X19	Y19	Z19	X20	Y20	Z20	X21	Y21	Z21	X22	Y22	Z22	X23	Y23	Z23	X24	Y24	Z24	X25	Y25	Z25	X26	Y26	Z26	X27	Y27	Z27	X28	Y28	Z28	X29	Y29	Z29	X30	Y30	Z30	X31	Y31	Z31	X32	Y32	Z32	X33	Y33	Z33	X34	Y34	Z34	X35	Y35	Z35	X36	Y36	Z36	X37	Y37	Z37	X38	Y38	Z38	X39	Y39	Z39	X40	Y40	Z40	X41	Y41	Z41	X42	Y42	Z42	X43	Y43	Z43	X44	Y44	Z44	X45	Y45	Z45	X46	Y46	Z46	X47	Y47	Z47	X48	Y48	Z48	X49	Y49	Z49	X50	Y50	Z50	X51	Y51	Z51	X52	Y52	Z52	X53	Y53	Z53	

188	1.87	487.3398132324219	1020.4599609375	1064.16845703125	387.757080078125	1013.021362304688	922.2858276367188	438.7440185546875	1079.464965820312	985.60888671875	666.1549072265625	1266.053100585938	858.541015625	427.7984008789062	1214.347412109375	987.1490478515625	490.227783203125	1478.024047851562	952.475341796875	463.3798217773438	1343.119262695312	1050.371826171875	642.3170166015625	1381.401123046875	869.9115600585938	419.4648742675781	1442.357177734375	877.6846923828125	473.7615356445312	1442.042358398438	765.3137817382812	407.876708984375	1323.7822265625	706.1297607421875	390.3900146484375	1111.7548828125	668.3267822265625	381.7421569824219	1092.355834960938	772.2299194335938	521.260498046875	884.056884765625	667.3760375976562	442.2110900878906	865.6809692382812	645.4688720703125	411.3270263671875	1004.7236328125	645.5469970703125	559.9680786132812	700.8187866210938	669.6904296875	480.1269226074219	788.4270629882812	630.042236328125	546.792724609375	803.9257202148438	650.7686767578125	626.8424072265625	1440.314453125	1076.7919921875	640.7822875976562	1374.319946289062	1140.978393554688	603.7200317382812	1121.774536132812	1207.75	577.91162109375	1090.497924804688	1115.042114257812	704.2607421875	858.9664306640625	1127.228271484375	655.8903198242188	848.7547607421875	1199.176513671875	613.2120361328125	1038.691528320312	1215.877319335938	689.615966796875	669.8683471679688	1115.083984375	718.7902221679688	754.0172119140625	1122.57958984375	683.941162109375	757.3717651367188	1191.006591796875	528.7874755859375	1669.85205078125	895.0679321289062	732.3876342773438	1645.94580078125	825.1383056640625	631.6151123046875	1648.58056640625	749.4302368164062	643.2166748046875	1657.077392578125	971.2973022460938	428.8726501464844	947.1444091796875	790.9071044921875	583.3881225585938	947.9782104492188	1098.244262695312	678.4421997070312	964.0148315429688	1015.770263671875	551.51416015625	955.86962890625	780.263916015625	625.6480712890625	503.7266235351562	822.2283325195312	543.2108764648438	627.2767333984375	789.9461669921875	563.5433349609375	47.24924087524414	880.8023071289062	591.8640747070312	254.4989318847656	843.7115478515625	759.9088745117188	43.64509582519531	820.7094116210938	729.2640991210938	36.62182998657227	882.9000244140625	646.2205200195312	46.80024719238281	810.2760620117188	542.2939453125	41.48520278930664	969.8329467773438	717.4928588867188	507.5519409179688	1025.154418945312	682.8317260742188	779.0037231445312	1054.122436523438	377.0278625488281	218.7462615966797	1234.161499023438	649.3251342773438	418.1657409667969	1077.062133789062	506.4638061523438	77.91217041015625	1148.849365234375	451.1144714355469	113.2927551269531	1124.575073242188	465.8867797851562	135.4371032714844	1221.837524414062	327.1611328125	248.7174835205078	1192.586791992188	
189	1.88	496.3802795410156	1020.952331542969	1059.305053710938	394.6675720214844	1013.60400390625	919.1221923828125	446.3281860351562	1080.028686523438	981.3233032226562	671.8427734375	1267.029541015625	852.249267578125	434.9095458984375	1214.8447265625	983.1519165039062	496.6506042480469	1478.694702148438	948.351806640625	470.9099731445312	1343.513061523438	1046.210815429688	648.1000366210938	1382.327758789062	864.120361328125	425.1156005859375	1443.101806640625	874.338623046875	478.2861328125	1443.006103515625	761.4174194335938	411.8068542480469	1324.794799804688	702.8887939453125	394.1200256347656	1112.782592773438	664.90673828125	386.4991455078125	1093.191528320312	768.614501953125	528.4685668945312	887.0411987304688	663.4852294921875	449.636474609375	867.3440551757812	641.9815063476562	416.5199584960938	1005.9921875	641.9449462890625	570.0874633789062	704.4306640625	666.336669921875	488.6868591308594	790.5982055664062	626.7569580078125	555.1588134765625	807.2147827148438	647.0567626953125	634.4797973632812	1440.854370117188	1071.31591796875	648.9082641601562	1374.93701171875	1135.365356445312	611.7051391601562	1122.61669921875	1202.507202148438	585.221923828125	1091.285400390625	1109.984741210938	710.5046997070312	859.0875854492188	1122.1083984375	662.518310546875	849.3858032226562	1194.390014648438	620.8802490234375	1039.56982421875	1210.750732421875	694.3396606445312	670.0103149414062	1110.590454101562	724.2383422851562	753.98388671875	1117.62890625	689.7850952148438	757.7759399414062	1186.304809570312	534.6323852539062	1670.771728515625	890.9326171875	737.3563232421875	1646.841674804688	818.5447998046875	635.7000732421875	1649.4755859375	744.0092163085938	649.88671875	1657.957885742188	965.7327880859375	433.2837219238281	947.7329711914062	786.8788452148438	593.2536010742188	948.7399291992188	1091.736328125	686.6901245117188	965.1498413085938	1007.650207519531	555.9043579101562	956.56884765625	774.2854614257812	627.1920166015625	502.94921875	819.7373657226562	545.5106201171875	626.9335327148438	787.1555786132812	563.5877075195312	47.24978637695312	880.82666015625	592.6736450195312	254.1564636230469	842.8269653320312	759.9218139648438	43.59661102294922	820.6820068359375	729.2814331054688	36.60085296630859	882.9130859375	646.2366943359375	46.75381088256836	810.281005859375	542.3756713867188	41.59765243530273	969.8939819335938	732.9392700195312	510.3245544433594	1009.937561035156	694.6867065429688	781.0330200195312	1043.855102539062	403.1231689453125	212.4648895263672	1223.774291992188	667.4951171875	419.1610107421875	1062.613403320312	535.1814575195312	76.82320404052734	1133.464721679688	478.1802978515625	110.7081527709961	1111.07421875	494.5290832519531	132.4110565185547	1208.095703125	351.3008422851562	241.1518249511719	1183.649658203125	
190	1.89	505.3572692871094	1021.327026367188	1054.440551757812	401.5001831054688	1014.062377929688	915.9886474609375	453.8467407226562	1080.53662109375	977.105224609375	677.4462890625	1267.862915039062	845.9598999023438	441.9269409179688	1215.244018554688	979.1810302734375	503.0314331054688	1479.260009765625	944.22412109375	478.4060668945312	1343.822021484375	1042.06591796875	653.79931640625	1383.115356445312	858.3277587890625	430.7396850585938	1443.735229492188	870.9658203125	482.78125	1443.808959960938	757.5272827148438	415.7277221679688	1325.647705078125	699.6239624023438	397.796630859375	1113.635864257812	661.53466796875	391.1800231933594	1093.891357421875	765.1207275390625	535.5385131835938	889.9113159179688	659.6058349609375	456.9300842285156	868.85302734375	638.6177978515625	421.5982360839844	1007.102844238281	638.426513671875	580.1589965820312	708.0116577148438	663.006103515625	497.1175537109375	792.6504516601562	623.570556640625	563.4100952148438	810.4236450195312	643.34326171875	642.112548828125	1441.289794921875	1065.80126953125	657.0365600585938	1375.453369140625	1129.714599609375	619.6986694335938	1123.3876953125	1197.3330078125	592.443359375	1092.017944335938	1105.050903320312	716.62451171875	859.1311645507812	1116.940795898438	669.110595703125	849.9392700195312	1189.620239257812	628.5631103515625	1040.37158203125	1205.692993164062	698.836181640625	670.0950317382812	1106.058471679688	729.5074462890625	753.8735961914062	1112.590942382812	695.5501098632812	758.0973510742188	1181.57958984375	540.3776245117188	1671.519897460938	886.7949829101562	742.2349853515625	1647.698120117188	812.0352172851562	639.7382202148438	1650.310546875	738.6598510742188	656.4287109375	1658.7060546875	960.2081298828125	437.6683959960938	948.1993408203125	782.930908203125	603.0657958984375	949.3902587890625	1085.220336914062	694.8554077148438	966.217529296875	999.5972290039062	560.230224609375	957.1500244140625	768.435546875	628.8466186523438	502.1687927246094	817.3516845703125	547.9204711914062	626.5763549804688	784.5023803710938	563.6556396484375	47.25664520263672	880.8626098632812	593.532470703125	253.8031311035156	841.9880981445312	759.9351806640625	43.53455352783203	820.6423950195312	729.3175659179688	36.56889343261719	882.9385375976562	646.2731323242188	46.70965194702148	810.3001098632812	542.4710083007812	41.69776153564453	969.967529296875	747.8009033203125	513.2123413085938	994.6441040039062	706.295654296875	783.1146850585938	1033.576293945312	429.65869140625	205.5778961181641	1212.769165039062	685.2645263671875	420.1063537597656	1047.996826171875	564.0579223632812	75.44278717041016	1117.188232421875	505.4483337402344	107.7122421264648	1096.801025390625	523.37939453125	128.9066009521484	1193.489990234375	375.8515319824219	232.7901153564453	1174.100463867188	
191	1.9	514.2566528320312	1021.562866210938	1049.585693359375	408.2752380371094	1014.4013671875	912.8842163085938	461.3260498046875	1080.985717773438	972.9756469726562	682.9637451171875	1268.560424804688	839.6707153320312	448.854248046875	1215.540649414062	975.2513427734375	509.3725280761719	1479.720092773438	940.095458984375	485.8724365234375	1344.043823242188	1037.93359375	659.4108276367188	1383.770141601562	852.5343017578125	436.3458862304688	1444.254028320312	867.5751342773438	487.2434997558594	1444.456665039062	753.6439208984375	419.6328735351562	1326.340454101562	696.3424072265625	401.4543151855469	1114.31201171875	658.2061767578125	395.8083190917969	1094.460571289062	761.7509765625	542.4883422851562	892.6488647460938	655.7447509765625	464.1080627441406	870.2177124023438	635.3470458984375	426.5907287597656	1008.056518554688	634.9885864257812	590.1118774414062	711.5241088867188	659.6624145507812	505.4199829101562	794.5875244140625	620.4365844726562	571.5401000976562	813.529541015625	639.6255493164062	649.7373046875	1441.62158203125	1060.246948242188	665.1653442382812	1375.865844726562	1124.022583007812	627.6968383789062	1124.08203125	1192.206787109375	599.58251953125	1092.69580078125	1100.221801757812	722.6311645507812	859.09521484375	1111.726318359375	675.673828125	850.4154663085938	1184.858764648438	636.2669677734375	1041.092651367188	1200.683471679688	703.1669311523438	670.1173095703125	1101.519653320312	734.6260375976562	753.6848754882812	1107.489624023438	701.2742309570312	758.3429565429688	1176.841796875	546.046630859375	1672.09814453125	882.64697265625	747.0361328125	1648.502075195312	805.5907592773438	643.7388916015625	1651.076416015625	733.3626098632812	662.8629150390625	1659.318603515625	954.7094116210938	442.0466613769531	948.55078125	779.0712280273438	612.8203735351562	949.9151000976562	1078.7060546875	702.934326171875	967.201171875	991.604248046875	564.4967651367188	957.6167602539062	762.703857421875	630.6201782226562	501.3865356445312	815.06494140625	550.462158203125	626.2188720703125	782.0059204101562	563.7412719726562	47.2685432434082	880.9100341796875	594.4276123046875	253.4387817382812	841.1890869140625	759.9481201171875	43.46190643310547	820.5924682617188	729.3695678710938	36.52751159667969	882.9725341796875	646.3271484375	46.66671752929688	810.3331298828125	542.5789184570312	41.78033447265625	970.05712890625	762.07421875	516.1737670898438	979.3369750976562	717.6969604492188	785.1983642578125	1023.243774414062	456.6317138671875	198.1668548583984	1201.111572265625	702.6383056640625	420.9759826660156	1033.23193359375	592.9215087890625	73.84526062011719	1099.8974609375	532.7617797851562	104.4155578613281	1081.647705078125	552.3328857421875	124.9543304443359	1177.928344726562	400.8025817871094	223.7549285888672	1163.947875976562	
